<svg width="275" height="67" viewBox="0 0 275 67" fill="none" xmlns="http://www.w3.org/2000/svg">
<path d="M46.9 34.0814L24.2394 33.968C23.112 39.4869 25.8638 51.1242 45.8908 53.5325V67C9.56577 65.9357 0.260635 46.2727 0.148555 36.5743C0.0364422 25.7677 -0.120486 6.01863 0.148555 3.49066C0.417597 0.963887 3.06271 0.111027 4.35225 0H46.9V34.0814ZM30.0827 11.7702C27.4826 11.7705 25.3761 13.8531 25.3757 16.4236C25.3757 18.9944 27.4824 21.0791 30.0827 21.0795C32.6834 21.0795 34.7923 18.9946 34.7923 16.4236C34.7919 13.8529 32.6832 11.7702 30.0827 11.7702Z" fill="#22CE84"/>
<path d="M257.766 55.7409C254.311 55.7409 251.342 55.0343 248.858 53.621C246.388 52.1935 244.482 50.2092 243.14 47.6681C241.813 45.1128 241.149 42.1506 241.149 38.7816C241.149 35.3983 241.813 32.4361 243.14 29.895C244.482 27.3397 246.388 25.3554 248.858 23.9421C251.342 22.5146 254.311 21.8008 257.766 21.8008C261.22 21.8008 264.182 22.5146 266.652 23.9421C269.136 25.3554 271.042 27.3397 272.369 29.895C273.711 32.4361 274.382 35.3983 274.382 38.7816C274.382 42.1506 273.711 45.1128 272.369 47.6681C271.042 50.2092 269.136 52.1935 266.652 53.621C264.182 55.0343 261.22 55.7409 257.766 55.7409ZM257.83 47.8394C259.086 47.8394 260.15 47.454 261.02 46.6831C261.891 45.9122 262.555 44.8415 263.012 43.4711C263.483 42.1006 263.718 40.5161 263.718 38.7173C263.718 36.8901 263.483 35.2912 263.012 33.9207C262.555 32.5503 261.891 31.4796 261.02 30.7087C260.15 29.9379 259.086 29.5524 257.83 29.5524C256.531 29.5524 255.432 29.9379 254.532 30.7087C253.647 31.4796 252.969 32.5503 252.498 33.9207C252.041 35.2912 251.813 36.8901 251.813 38.7173C251.813 40.5161 252.041 42.1006 252.498 43.4711C252.969 44.8415 253.647 45.9122 254.532 46.6831C255.432 47.454 256.531 47.8394 257.83 47.8394Z" fill="#22CE84"/>
<path d="M201.589 19.8679V11.2598H238.655V19.8679H225.358V55.1143H214.908V19.8679H201.589Z" fill="#22CE84"/>
<path d="M176.729 46.4847L176.772 34.0007H178.228L187.479 22.2234H199.342L185.594 39.0971H182.832L176.729 46.4847ZM167.286 55.1143V11.2598H177.757V55.1143H167.286ZM187.714 55.1143L179.106 41.4526L186.001 34.0222L199.813 55.1143H187.714Z" fill="#22CE84"/>
<path d="M157.271 11.2598V55.1143H146.8V11.2598H157.271Z" fill="#22CE84"/>
<path d="M117.39 55.6767C115.291 55.6767 113.428 55.3269 111.801 54.6274C110.188 53.9137 108.91 52.843 107.968 51.4154C107.04 49.9736 106.576 48.1678 106.576 45.9979C106.576 44.1706 106.897 42.6288 107.54 41.3726C108.182 40.1163 109.067 39.0956 110.195 38.3105C111.323 37.5253 112.622 36.9329 114.092 36.5332C115.563 36.1192 117.133 35.8408 118.803 35.698C120.673 35.5267 122.179 35.3483 123.321 35.1627C124.463 34.9629 125.291 34.6845 125.805 34.3276C126.333 33.9564 126.598 33.4354 126.598 32.7644V32.6573C126.598 31.5581 126.219 30.7087 125.463 30.1092C124.706 29.5096 123.685 29.2098 122.401 29.2098C121.016 29.2098 119.902 29.5096 119.06 30.1092C118.218 30.7087 117.682 31.5367 117.454 32.5931L107.797 32.2505C108.082 30.2519 108.817 28.4675 110.002 26.8972C111.201 25.3126 112.843 24.0706 114.927 23.1712C117.026 22.2576 119.545 21.8008 122.486 21.8008C124.585 21.8008 126.519 22.0506 128.289 22.5502C130.059 23.0356 131.601 23.7494 132.914 24.6916C134.228 25.6195 135.241 26.7615 135.955 28.1177C136.683 29.4739 137.047 31.0228 137.047 32.7644V55.1199H127.197V50.5375H126.94C126.355 51.651 125.605 52.5932 124.692 53.3641C123.792 54.1349 122.729 54.7131 121.501 55.0985C120.288 55.484 118.917 55.6767 117.39 55.6767ZM120.623 48.8244C121.751 48.8244 122.765 48.596 123.664 48.1392C124.578 47.6824 125.306 47.0543 125.848 46.2548C126.391 45.4411 126.662 44.4989 126.662 43.4283V40.3019C126.362 40.4589 125.998 40.6017 125.57 40.7302C125.156 40.8587 124.699 40.98 124.199 41.0942C123.7 41.2084 123.186 41.3083 122.657 41.394C122.129 41.4796 121.622 41.5582 121.137 41.6295C120.152 41.7866 119.31 42.0293 118.61 42.3576C117.925 42.6859 117.397 43.1142 117.026 43.6424C116.669 44.1563 116.49 44.7702 116.49 45.4839C116.49 46.5689 116.876 47.3969 117.647 47.9679C118.432 48.5389 119.424 48.8244 120.623 48.8244Z" fill="#22CE84"/>
<path d="M67 19.8679V11.2598H104.067V19.8679H90.7688V55.1143H80.3191V19.8679H67Z" fill="#22CE84"/>
</svg>
